<?xml version="1.0" encoding="UTF-8"?>
<svg version="1.1" xmlns="http://www.w3.org/2000/svg" width="528" height="648">
<path d="M0 0 C174.24 0 348.48 0 528 0 C528 213.84 528 427.68 528 648 C353.76 648 179.52 648 0 648 C0 434.16 0 220.32 0 0 Z " fill="#021E45" transform="translate(0,0)"/>
<path d="M0 0 C1.98 0.495 1.98 0.495 4 1 C4.125 3.375 4.125 3.375 4 6 C3.34 6.66 2.68 7.32 2 8 C1.01 8 0.02 8 -1 8 C-1.08226668 4.95613276 -0.97608217 2.92824652 0 0 Z " fill="#082454" transform="translate(177,24)"/>
<path d="M0 0 C1.32 0.33 2.64 0.66 4 1 C3.1875 3.9375 3.1875 3.9375 2 7 C1.01 7.33 0.02 7.66 -1 8 C-2.2077558 4.37673261 -1.54311128 3.35853631 0 0 Z " fill="#04254D" transform="translate(356,0)"/>
<path d="M0 0 C1.65 0.33 3.3 0.66 5 1 C5 1.66 5 2.32 5 3 C2.35261084 4.4606285 1.10551666 5 -2 5 C-2 4.01 -2 3.02 -2 2 C-1.34 2 -0.68 2 0 2 C0 1.34 0 0.68 0 0 Z " fill="#092F5B" transform="translate(491,0)"/>
<path d="M0 0 C0.99 0 1.98 0 3 0 C1.75023244 3.65316671 1.32901247 4.78065836 -2 7 C-1.125 2.25 -1.125 2.25 0 0 Z " fill="#082450" transform="translate(321,191)"/>
</svg>
